<svg width="25" height="18" viewBox="0 0 25 18" fill="none" xmlns="http://www.w3.org/2000/svg">
<g clip-path="url(#clip0_78_47)">
<path d="M12.5028 4.38503C8.95566 4.38503 6.09453 6.44548 6.09453 9C6.09453 11.5545 8.95566 13.615 12.5028 13.615C16.0499 13.615 18.911 11.5545 18.911 9C18.911 6.44548 16.0499 4.38503 12.5028 4.38503ZM12.5028 12.0003C10.2105 12.0003 8.3366 10.6548 8.3366 9C8.3366 7.34521 10.205 5.99967 12.5028 5.99967C14.8006 5.99967 16.669 7.34521 16.669 9C16.669 10.6548 14.795 12.0003 12.5028 12.0003ZM20.6679 4.19625C20.6679 4.7947 19.9986 5.27269 19.1732 5.27269C18.3422 5.27269 17.6785 4.7907 17.6785 4.19625C17.6785 3.60181 18.3477 3.11983 19.1732 3.11983C19.9986 3.11983 20.6679 3.60181 20.6679 4.19625ZM24.9122 5.28876C24.8174 3.84682 24.36 2.56956 22.8932 1.51724C21.432 0.464913 19.6584 0.135557 17.6562 0.0632601C15.5926 -0.0210867 9.40741 -0.0210867 7.34382 0.0632601C5.34717 0.131541 3.57362 0.460894 2.10681 1.51322C0.639991 2.56555 0.188232 3.8428 0.0878415 5.28471C-0.0292805 6.77083 -0.0292805 11.2252 0.0878415 12.7112C0.182655 14.1532 0.639991 15.4305 2.10681 16.4828C3.57362 17.5351 5.3416 17.8645 7.34382 17.9367C9.40741 18.0211 15.5926 18.0211 17.6562 17.9367C19.6584 17.8685 21.432 17.5391 22.8932 16.4828C24.3544 15.4305 24.8118 14.1532 24.9122 12.7112C25.0293 11.2252 25.0293 6.77484 24.9122 5.28876ZM22.2462 14.3058C21.8112 15.093 20.9691 15.6996 19.8703 16.0168C18.225 16.4868 14.321 16.3783 12.5028 16.3783C10.6846 16.3783 6.77495 16.4828 5.13524 16.0168C4.04211 15.7036 3.19994 15.097 2.75934 14.3058C2.10681 13.1209 2.25739 10.3094 2.25739 9C2.25739 7.69063 2.11238 4.87503 2.75934 3.69419C3.19437 2.90695 4.03653 2.30046 5.13524 1.98315C6.78052 1.51322 10.6846 1.62166 12.5028 1.62166C14.321 1.62166 18.2306 1.51724 19.8703 1.98315C20.9635 2.29644 21.8056 2.90294 22.2462 3.69419C22.8988 4.87908 22.7482 7.69063 22.7482 9C22.7482 10.3094 22.8988 13.125 22.2462 14.3058Z" fill="white"/>
</g>
<defs>
<clipPath id="clip0_78_47">
<rect width="25" height="18" fill="white"/>
</clipPath>
</defs>
</svg>
