<svg width="28" height="18" viewBox="0 0 28 18" fill="none" xmlns="http://www.w3.org/2000/svg">
<g clip-path="url(#clip0_78_45)">
<path d="M14 0.28125C6.26799 0.28125 0 4.18475 0 9C0 13.8152 6.26799 17.7188 14 17.7188C21.732 17.7188 28 13.8152 28 9C28 4.18475 21.732 0.28125 14 0.28125ZM20.4892 6.2107C20.2785 7.58936 19.3669 10.9349 18.9029 12.4791C18.7067 13.1324 18.3202 13.3515 17.9462 13.3729C17.1333 13.4195 16.5158 13.0383 15.7284 12.7169C14.4962 12.2138 13.8001 11.9007 12.604 11.4099C11.2218 10.8426 12.1178 10.5309 12.9056 10.0212C13.1117 9.88784 16.6939 7.85872 16.7632 7.67464C16.7718 7.65162 16.7801 7.56566 16.698 7.52052C16.616 7.47538 16.4954 7.49067 16.4082 7.50294C16.2846 7.52043 14.3162 8.33068 10.5029 9.93371C9.9442 10.1726 9.43813 10.2891 8.98467 10.283C8.48479 10.2762 7.52325 10.107 6.8084 9.96223C5.93165 9.78476 5.23481 9.69093 5.2955 9.3895C5.32711 9.23247 5.67429 9.07192 6.33703 8.90786C10.4183 7.80048 13.1398 7.0704 14.5015 6.71762C18.3895 5.7105 19.1973 5.53556 19.7239 5.52973C19.8397 5.52853 20.0987 5.54639 20.2664 5.63115C20.378 5.69153 20.4491 5.77579 20.4657 5.86726C20.4941 5.98084 20.502 6.09603 20.4892 6.2107Z" fill="white"/>
</g>
<defs>
<clipPath id="clip0_78_45">
<rect width="28" height="18" fill="white"/>
</clipPath>
</defs>
</svg>
