<svg width="25" height="18" viewBox="0 0 25 18" fill="none" xmlns="http://www.w3.org/2000/svg">
<path d="M23.2084 4.6837C22.9358 3.85226 22.1326 3.19744 21.1128 2.97522C19.2642 2.57141 11.8519 2.57141 11.8519 2.57141C11.8519 2.57141 4.43954 2.57141 2.59097 2.97522C1.57114 3.19747 0.767925 3.85226 0.495312 4.6837C0 6.19075 0 9.33505 0 9.33505C0 9.33505 0 12.4794 0.495312 13.9864C0.767925 14.8178 1.57114 15.4454 2.59097 15.6676C4.43954 16.0714 11.8519 16.0714 11.8519 16.0714C11.8519 16.0714 19.2642 16.0714 21.1128 15.6676C22.1326 15.4454 22.9358 14.8178 23.2084 13.9864C23.7037 12.4794 23.7037 9.33505 23.7037 9.33505C23.7037 9.33505 23.7037 6.19075 23.2084 4.6837ZM9.4276 12.1898V6.48026L15.6229 9.33512L9.4276 12.1898Z" fill="white"/>
</svg>
